<svg width="1440" height="1024" viewBox="0 0 1440 1024" fill="none" xmlns="http://www.w3.org/2000/svg">
<g clip-path="url(#clip0_435_6467)">
<rect width="1440" height="1024" fill="white"/>
<rect x="-355" y="-12.5605" width="1920" height="1080" fill="#702082"/>
<mask id="mask0_435_6467" style="mask-type:alpha" maskUnits="userSpaceOnUse" x="0" y="0" width="1440" height="1024">
<rect width="1440" height="1024" fill="#702082"/>
</mask>
<g mask="url(#mask0_435_6467)">
<path d="M2121.95 1247.43L2407.36 369.927C2412.63 354.661 2401.57 337.817 2385.25 336.764C2344.7 333.606 2304.15 332.026 2263.08 332.026C1629.6 332.026 1081.95 696.82 817.603 1227.96C809.178 1244.8 821.816 1264.28 840.246 1264.28H2097.73C2108.79 1264.28 2118.27 1257.43 2121.43 1246.91L2121.95 1247.43Z" fill="#E81F76"/>
<g style="mix-blend-mode:overlay">
<path d="M-290.296 1277.24H504.66C518.758 1277.24 529.218 1264.06 526.034 1250.42C395.967 701.153 -58.8129 277.838 -624.559 194.176C-640.476 191.902 -653.21 207.362 -648.207 222.821L-310.761 1261.78C-308.032 1270.88 -299.391 1276.79 -290.296 1276.79V1277.24Z" fill="#740799"/>
</g>
<g style="mix-blend-mode:overlay">
<path d="M-681.851 -55.1399L-396.246 818C-390.857 833.621 -372.535 840.623 -358.525 832.544C126.465 544.908 451.408 16.4996 451.408 -587.858C451.408 -673.502 444.402 -757.53 431.469 -839.404C428.775 -858.257 406.142 -867.414 390.515 -856.102L-673.229 -83.6881C-682.39 -77.2244 -686.162 -65.3741 -682.39 -55.1399H-681.851Z" fill="#A2007C"/>
</g>
<g style="mix-blend-mode:overlay">
<path d="M1956.86 176.284L1251.04 -336.528C1238.52 -345.542 1220.48 -340.534 1214.47 -326.512C1142.84 -149.232 1102.76 44.0745 1102.76 246.896C1102.76 673.07 1277.09 1058.68 1557.61 1336.62C1570.14 1349.14 1591.68 1343.63 1597.19 1326.6L1964.88 202.325C1967.88 192.309 1964.88 181.792 1956.36 175.783L1956.86 176.284Z" fill="#CC3362"/>
</g>
<g style="mix-blend-mode:multiply">
<path d="M479.056 -950.712L-550.422 -202.734C-568.845 -189.469 -570.319 -161.466 -552.633 -146.727C-160.591 181.941 344.936 380.173 896.153 380.173C1266.82 380.173 1615.39 289.532 1923.42 131.83C1947 120.039 1948.48 86.8775 1927.84 71.402L520.323 -951.449C507.796 -960.292 491.583 -960.292 479.056 -951.449V-950.712Z" fill="#CD009F"/>
</g>
</g>
</g>
<defs>
<clipPath id="clip0_435_6467">
<rect width="1440" height="1024" fill="white"/>
</clipPath>
</defs>
</svg>
