<svg width="48" height="48" viewBox="0 0 48 48" fill="none" xmlns="http://www.w3.org/2000/svg">
<mask id="mask0_289_2352" style="mask-type:alpha" maskUnits="userSpaceOnUse" x="0" y="0" width="48" height="48">
<rect width="48" height="48" fill="#D9D9D9"/>
</mask>
<g mask="url(#mask0_289_2352)">
<path d="M21.1615 32.5075L34.6075 19.0615L32.5 16.954L21.1615 28.2925L15.4615 22.5925L13.354 24.7L21.1615 32.5075ZM24.0035 43C21.3755 43 18.9053 42.5013 16.593 41.504C14.2807 40.5067 12.2693 39.1532 10.559 37.4435C8.84867 35.7338 7.4945 33.7233 6.4965 31.412C5.49883 29.1007 5 26.6312 5 24.0035C5 21.3755 5.49867 18.9053 6.496 16.593C7.49333 14.2807 8.84683 12.2693 10.5565 10.559C12.2662 8.84867 14.2767 7.4945 16.588 6.4965C18.8993 5.49883 21.3688 5 23.9965 5C26.6245 5 29.0947 5.49867 31.407 6.496C33.7193 7.49333 35.7307 8.84683 37.441 10.5565C39.1513 12.2662 40.5055 14.2767 41.5035 16.588C42.5012 18.8993 43 21.3688 43 23.9965C43 26.6245 42.5013 29.0947 41.504 31.407C40.5067 33.7193 39.1532 35.7307 37.4435 37.441C35.7338 39.1513 33.7233 40.5055 31.412 41.5035C29.1007 42.5012 26.6312 43 24.0035 43ZM24 40C28.4667 40 32.25 38.45 35.35 35.35C38.45 32.25 40 28.4667 40 24C40 19.5333 38.45 15.75 35.35 12.65C32.25 9.55 28.4667 8 24 8C19.5333 8 15.75 9.55 12.65 12.65C9.55 15.75 8 19.5333 8 24C8 28.4667 9.55 32.25 12.65 35.35C15.75 38.45 19.5333 40 24 40Z" fill="#C40086"/>
</g>
</svg>
