<svg width="64" height="64" viewBox="0 0 64 64" fill="none" xmlns="http://www.w3.org/2000/svg">
<rect width="64" height="64" rx="32" fill="#C40086" fill-opacity="0.06"/>
<mask id="mask0_213_5008" style="mask-type:alpha" maskUnits="userSpaceOnUse" x="8" y="8" width="48" height="48">
<rect x="8" y="8" width="48" height="48" fill="#D9D9D9"/>
</mask>
<g mask="url(#mask0_213_5008)">
<path d="M22 34.4615C21.3103 34.4615 20.7277 34.2237 20.252 33.748C19.7763 33.2723 19.5385 32.6897 19.5385 32C19.5385 31.3103 19.7763 30.7277 20.252 30.252C20.7277 29.7763 21.3103 29.5385 22 29.5385C22.6897 29.5385 23.2723 29.7763 23.748 30.252C24.2237 30.7277 24.4615 31.3103 24.4615 32C24.4615 32.6897 24.2237 33.2723 23.748 33.748C23.2723 34.2237 22.6897 34.4615 22 34.4615ZM22 42C19.2307 42 16.8717 41.0257 14.923 39.077C12.9743 37.1283 12 34.7693 12 32C12 29.2307 12.9743 26.8717 14.923 24.923C16.8717 22.9743 19.2307 22 22 22C24.054 22 25.906 22.5563 27.556 23.669C29.206 24.782 30.4103 26.2257 31.169 28H49.577L53.577 32L47.1925 38.3075L43.769 35.731L40.154 38.3845L36.596 36H31.169C30.4103 37.7487 29.206 39.1858 27.556 40.3115C25.906 41.4372 24.054 42 22 42ZM22 40C23.9693 40 25.6495 39.4077 27.0405 38.223C28.4315 37.0383 29.3218 35.6307 29.7115 34H37.231L40.0925 35.9345L43.8075 33.269L47.05 35.7115L50.7615 32L48.7615 30H29.7115C29.3218 28.3693 28.4315 26.9617 27.0405 25.777C25.6495 24.5923 23.9693 24 22 24C19.8 24 17.9167 24.7833 16.35 26.35C14.7833 27.9167 14 29.8 14 32C14 34.2 14.7833 36.0833 16.35 37.65C17.9167 39.2167 19.8 40 22 40Z" fill="#C40086"/>
</g>
</svg>
