<svg width="48" height="48" viewBox="0 0 48 48" fill="none" xmlns="http://www.w3.org/2000/svg">
<mask id="mask0_213_5010" style="mask-type:alpha" maskUnits="userSpaceOnUse" x="0" y="0" width="48" height="48">
<rect width="48" height="48" fill="#D9D9D9"/>
</mask>
<g mask="url(#mask0_213_5010)">
<path d="M14 26.4615C13.3103 26.4615 12.7277 26.2237 12.252 25.748C11.7763 25.2723 11.5385 24.6897 11.5385 24C11.5385 23.3103 11.7763 22.7277 12.252 22.252C12.7277 21.7763 13.3103 21.5385 14 21.5385C14.6897 21.5385 15.2723 21.7763 15.748 22.252C16.2237 22.7277 16.4615 23.3103 16.4615 24C16.4615 24.6897 16.2237 25.2723 15.748 25.748C15.2723 26.2237 14.6897 26.4615 14 26.4615ZM14 34C11.2307 34 8.87167 33.0257 6.923 31.077C4.97433 29.1283 4 26.7693 4 24C4 21.2307 4.97433 18.8717 6.923 16.923C8.87167 14.9743 11.2307 14 14 14C16.054 14 17.906 14.5563 19.556 15.669C21.206 16.782 22.4103 18.2257 23.169 20H41.577L45.577 24L39.1925 30.3075L35.769 27.731L32.154 30.3845L28.596 28H23.169C22.4103 29.7487 21.206 31.1858 19.556 32.3115C17.906 33.4372 16.054 34 14 34ZM14 32C15.9693 32 17.6495 31.4077 19.0405 30.223C20.4315 29.0383 21.3218 27.6307 21.7115 26H29.231L32.0925 27.9345L35.8075 25.269L39.05 27.7115L42.7615 24L40.7615 22H21.7115C21.3218 20.3693 20.4315 18.9617 19.0405 17.777C17.6495 16.5923 15.9693 16 14 16C11.8 16 9.91667 16.7833 8.35 18.35C6.78333 19.9167 6 21.8 6 24C6 26.2 6.78333 28.0833 8.35 29.65C9.91667 31.2167 11.8 32 14 32Z" fill="#C40086"/>
</g>
</svg>
