<svg width="52" height="52" viewBox="0 0 52 52" fill="none" xmlns="http://www.w3.org/2000/svg">
<path d="M19.6671 18.006L23.7772 5.35777C23.8495 5.13612 23.6953 4.90002 23.464 4.88075C22.881 4.83256 22.2979 4.80847 21.7053 4.80847C12.5744 4.80847 4.68194 10.075 0.875419 17.7314C0.754959 17.9723 0.938062 18.2566 1.20307 18.2566H19.325C19.484 18.2566 19.6189 18.1554 19.6671 18.006Z" fill="#FF0177"/>
<path d="M32.3443 18.2566H45.6093C45.8454 18.2566 46.0188 18.035 45.9658 17.8085C43.7927 8.64398 36.2038 1.58023 26.7646 0.187715C26.4995 0.149168 26.2827 0.409361 26.3646 0.664735L31.9973 18.0109C32.0455 18.1603 32.1852 18.2615 32.3394 18.2615L32.3443 18.2566Z" fill="#740799"/>
<path d="M36.0255 30.3893L40.0488 42.6906C40.1211 42.9122 40.3813 43.0134 40.5788 42.893C47.4065 38.8407 51.9839 31.3963 51.9839 22.8822C51.9839 21.6728 51.8876 20.4923 51.7045 19.3359C51.6611 19.0709 51.3479 18.9408 51.1311 19.0998L36.1507 29.9845C36.0255 30.0761 35.9725 30.2399 36.0206 30.3893H36.0255Z" fill="#940787"/>
<path d="M15.5088 29.9845L4.82166 22.2173C4.62893 22.0775 4.35909 22.1546 4.26754 22.3715C3.18341 25.0553 2.57629 27.9897 2.57629 31.0638C2.57629 37.5253 5.21677 43.3652 9.46658 47.5764C9.65932 47.7643 9.98697 47.6824 10.0689 47.4271L15.6437 30.3893C15.6919 30.2399 15.6438 30.0761 15.5137 29.9845H15.5088Z" fill="#E0007A"/>
<path d="M25.6178 37.6409L15.0125 45.3455C14.8198 45.4853 14.8101 45.7695 14.9884 45.9237C19.0262 49.3111 24.2301 51.354 29.9109 51.354C33.7271 51.354 37.3168 50.4241 40.4921 48.7955C40.733 48.6702 40.7523 48.3329 40.5355 48.1739L26.0418 37.6409C25.9165 37.5494 25.743 37.5494 25.6178 37.6409Z" fill="#C40086"/>
</svg>
