<svg width="530" height="530" viewBox="0 0 530 530" fill="none" xmlns="http://www.w3.org/2000/svg">
<g opacity="0.05">
<path d="M194.994 185.599L237.166 55.5755C237.907 53.297 236.325 50.8699 233.952 50.6717C227.97 50.1764 221.988 49.9287 215.907 49.9287C122.219 49.9287 41.2379 104.068 2.18089 182.775C0.944912 185.252 2.82364 188.175 5.5428 188.175H191.484C193.115 188.175 194.5 187.134 194.994 185.599Z" fill="#FF0077"/>
<path d="M325.069 188.175H461.175C463.597 188.175 465.377 185.896 464.833 183.568C442.536 89.3569 364.669 16.7419 267.818 2.42699C265.099 2.03072 262.874 4.70549 263.715 7.33072L321.509 185.648C322.003 187.184 323.437 188.224 325.019 188.224L325.069 188.175Z" fill="#740799"/>
<path d="M362.84 312.948L404.122 439.405C404.864 441.683 407.533 442.723 409.56 441.485C479.616 399.828 526.583 323.3 526.583 235.776C526.583 223.343 525.594 211.207 523.716 199.32C523.271 196.595 520.057 195.258 517.832 196.892L364.126 308.787C362.84 309.728 362.296 311.412 362.791 312.948H362.84Z" fill="#940787"/>
<path d="M152.328 308.787L42.6717 228.94C40.6941 227.504 37.9255 228.296 36.9862 230.525C25.8624 258.115 19.633 288.28 19.633 319.882C19.633 386.306 46.7257 446.339 90.3311 489.631C92.3087 491.563 95.6706 490.721 96.511 488.095L153.712 312.948C154.207 311.412 153.712 309.728 152.377 308.787H152.328Z" fill="#E0007A"/>
<path d="M256.101 387.445L147.285 466.648C145.308 468.084 145.209 471.007 147.038 472.592C188.468 507.413 241.862 528.415 300.151 528.415C339.307 528.415 376.14 518.855 408.72 502.113C411.192 500.825 411.39 497.358 409.165 495.723L260.452 387.445C259.166 386.504 257.386 386.504 256.101 387.445Z" fill="#C40086"/>
</g>
</svg>
