<svg width="231" height="120" viewBox="0 0 231 120" fill="none" xmlns="http://www.w3.org/2000/svg">
<g clip-path="url(#clip0_687_272)">
<path d="M16.9063 109.681C16.7522 109.479 16.5401 109.306 16.2703 109.156C16.0005 109.007 15.7066 108.935 15.3886 108.935C15.1091 108.935 14.8537 108.992 14.6224 109.108C14.3911 109.224 14.2707 109.412 14.2707 109.681C14.2707 109.951 14.4008 110.139 14.6562 110.25C14.9115 110.361 15.2874 110.476 15.774 110.587C16.039 110.645 16.2992 110.717 16.5642 110.814C16.8293 110.91 17.0654 111.04 17.2822 111.199C17.499 111.358 17.6773 111.556 17.8122 111.792C17.9471 112.028 18.0146 112.312 18.0146 112.65C18.0146 113.074 17.9327 113.43 17.7737 113.724C17.6146 114.018 17.4026 114.254 17.1376 114.437C16.8726 114.62 16.5642 114.75 16.2125 114.832C15.8608 114.914 15.4946 114.953 15.1187 114.953C14.5791 114.953 14.0539 114.856 13.5431 114.659C13.0324 114.461 12.6083 114.182 12.2759 113.816L13.4178 112.746C13.6058 112.996 13.8563 113.208 14.1647 113.367C14.4731 113.526 14.8152 113.608 15.1862 113.608C15.3115 113.608 15.4416 113.594 15.5717 113.565C15.7017 113.536 15.8222 113.493 15.933 113.43C16.0439 113.367 16.1354 113.281 16.2029 113.175C16.2703 113.069 16.304 112.939 16.304 112.784C16.304 112.5 16.1691 112.293 15.9041 112.168C15.6391 112.042 15.2392 111.917 14.714 111.792C14.4538 111.734 14.2032 111.662 13.9575 111.57C13.7118 111.479 13.4901 111.358 13.2974 111.209C13.1046 111.059 12.9505 110.872 12.8348 110.655C12.7192 110.433 12.6614 110.163 12.6614 109.84C12.6614 109.455 12.7433 109.122 12.9023 108.843C13.0613 108.564 13.2733 108.337 13.5287 108.159C13.7889 107.981 14.078 107.85 14.4056 107.764C14.7333 107.677 15.0705 107.634 15.4175 107.634C15.9186 107.634 16.4101 107.72 16.8871 107.894C17.3641 108.067 17.7399 108.332 18.0242 108.689L16.8967 109.681H16.9063Z" fill="#373A36"/>
<path d="M27.5597 107.634C28.0126 107.634 28.3981 107.716 28.7209 107.875C29.0437 108.034 29.3087 108.241 29.5159 108.501C29.7231 108.761 29.8725 109.055 29.9688 109.392C30.0652 109.73 30.1134 110.077 30.1134 110.433V114.75H28.3836V110.915C28.3836 110.713 28.3691 110.501 28.3354 110.284C28.3065 110.062 28.239 109.865 28.1475 109.686C28.0511 109.508 27.9162 109.363 27.7524 109.248C27.5837 109.132 27.3621 109.074 27.0778 109.074C26.808 109.074 26.5815 109.132 26.3888 109.248C26.1961 109.363 26.037 109.513 25.9118 109.696C25.7865 109.879 25.6949 110.081 25.6371 110.308C25.5793 110.534 25.5504 110.756 25.5504 110.978V114.755H23.8206V110.578C23.8206 110.149 23.7146 109.787 23.5074 109.503C23.3002 109.219 22.9726 109.079 22.5293 109.079C22.2691 109.079 22.0474 109.132 21.8547 109.243C21.662 109.354 21.5029 109.494 21.3825 109.667C21.262 109.84 21.1705 110.038 21.1078 110.264C21.0452 110.491 21.0115 110.717 21.0115 110.949V114.755H19.2769V107.841H20.9296V108.954H20.9585C21.0307 108.78 21.1367 108.617 21.2668 108.462C21.3969 108.308 21.5511 108.168 21.7294 108.043C21.9077 107.918 22.1101 107.822 22.3413 107.749C22.5726 107.677 22.828 107.638 23.1075 107.638C23.6471 107.638 24.0952 107.759 24.4518 108C24.8084 108.241 25.083 108.559 25.2757 108.954C25.5118 108.53 25.8202 108.207 26.2057 107.981C26.5863 107.754 27.0441 107.638 27.5645 107.638L27.5597 107.634Z" fill="#373A36"/>
<path d="M35.9968 113.873H35.9534C35.78 114.182 35.5005 114.437 35.115 114.635C34.7296 114.832 34.2911 114.929 33.7948 114.929C33.5153 114.929 33.2262 114.89 32.9227 114.818C32.6191 114.746 32.3396 114.625 32.0843 114.456C31.8289 114.288 31.6169 114.066 31.4482 113.791C31.2796 113.517 31.1929 113.18 31.1929 112.775C31.1929 112.259 31.3374 111.85 31.6313 111.541C31.9253 111.233 32.3011 110.997 32.7637 110.833C33.2262 110.669 33.737 110.563 34.3007 110.51C34.8645 110.457 35.4186 110.433 35.9583 110.433V110.255C35.9583 109.826 35.7992 109.503 35.4861 109.296C35.1729 109.089 34.797 108.988 34.3585 108.988C33.9972 108.988 33.6454 109.065 33.3081 109.219C32.9709 109.373 32.6914 109.556 32.4697 109.778L31.5735 108.732C31.9686 108.366 32.4216 108.091 32.9419 107.908C33.4575 107.725 33.9779 107.634 34.5127 107.634C35.1295 107.634 35.6354 107.72 36.0353 107.894C36.4353 108.067 36.7485 108.294 36.9797 108.573C37.211 108.853 37.37 109.166 37.4616 109.508C37.5531 109.855 37.6013 110.197 37.6013 110.544V114.75H35.9823V113.873H35.9968ZM35.9679 111.594H35.5728C35.2933 111.594 35.0042 111.609 34.6958 111.633C34.3875 111.657 34.1032 111.715 33.843 111.797C33.5828 111.879 33.366 111.994 33.1925 112.144C33.019 112.293 32.9371 112.495 32.9371 112.751C32.9371 112.915 32.9709 113.054 33.0431 113.16C33.1154 113.266 33.207 113.358 33.3226 113.425C33.4382 113.493 33.5683 113.541 33.7129 113.57C33.8574 113.599 34.0068 113.613 34.1514 113.613C34.7488 113.613 35.2018 113.454 35.5101 113.136C35.8185 112.818 35.9727 112.389 35.9727 111.84V111.594H35.9679Z" fill="#373A36"/>
<path d="M39.1577 107.841H40.8249V108.992H40.8538C41.0465 108.588 41.3163 108.265 41.6633 108.009C42.0102 107.759 42.4149 107.634 42.8823 107.634C42.9498 107.634 43.0221 107.634 43.0992 107.638C43.1762 107.638 43.2437 107.653 43.3015 107.672V109.262C43.1859 109.233 43.0895 109.214 43.0076 109.2C42.9257 109.185 42.8438 109.18 42.7667 109.18C42.3716 109.18 42.0536 109.253 41.8126 109.397C41.5717 109.542 41.3838 109.715 41.2537 109.918C41.1188 110.12 41.0272 110.327 40.9791 110.534C40.9309 110.746 40.9068 110.915 40.9068 111.04V114.741H39.1722V107.826L39.1577 107.841Z" fill="#373A36"/>
<path d="M44.2554 109.224V107.836H45.4696V105.832H47.1753V107.836H48.9099V109.224H47.1753V112.433C47.1753 112.741 47.2331 112.996 47.344 113.199C47.4548 113.401 47.7005 113.502 48.086 113.502C48.1968 113.502 48.3221 113.493 48.4618 113.469C48.6016 113.445 48.7172 113.406 48.8232 113.358L48.8858 114.717C48.7316 114.774 48.5486 114.818 48.3365 114.852C48.1245 114.885 47.9222 114.9 47.7294 114.9C47.262 114.9 46.8862 114.837 46.5971 114.707C46.308 114.577 46.0767 114.403 45.9129 114.177C45.7443 113.951 45.6286 113.695 45.566 113.401C45.5033 113.107 45.4696 112.794 45.4696 112.457V109.233H44.2554V109.224Z" fill="#373A36"/>
<path d="M56.7352 111.382V111.609C56.7352 111.686 56.7352 111.763 56.7208 111.84H51.4495C51.4687 112.091 51.5314 112.322 51.6422 112.529C51.753 112.736 51.8976 112.91 52.0855 113.059C52.2686 113.208 52.4758 113.324 52.7071 113.411C52.9383 113.498 53.1793 113.541 53.4298 113.541C53.8683 113.541 54.2345 113.459 54.5332 113.3C54.832 113.141 55.0777 112.924 55.2704 112.645L56.422 113.565C55.7378 114.49 54.7452 114.953 53.4443 114.953C52.9094 114.953 52.4131 114.871 51.9602 114.702C51.5073 114.534 51.1122 114.297 50.7797 113.989C50.4472 113.681 50.187 113.305 49.9991 112.857C49.8112 112.409 49.7148 111.903 49.7148 111.344C49.7148 110.785 49.8112 110.279 49.9991 109.821C50.187 109.363 50.4424 108.973 50.7701 108.655C51.0977 108.332 51.4832 108.087 51.9361 107.908C52.389 107.73 52.8709 107.638 53.3865 107.638C53.8731 107.638 54.3164 107.72 54.726 107.879C55.1355 108.038 55.4873 108.274 55.786 108.588C56.0847 108.901 56.316 109.291 56.4847 109.754C56.6533 110.221 56.7352 110.766 56.7352 111.387V111.382ZM55.0054 110.602C55.0054 110.38 54.9717 110.168 54.9091 109.971C54.8464 109.773 54.7452 109.59 54.6103 109.441C54.4754 109.291 54.3068 109.166 54.0996 109.074C53.8924 108.983 53.6466 108.939 53.3672 108.939C52.8516 108.939 52.4083 109.094 52.0469 109.407C51.6856 109.72 51.4832 110.12 51.4446 110.607H55.0006L55.0054 110.602Z" fill="#373A36"/>
<path d="M58.0166 107.841H59.6838V108.992H59.7127C59.9054 108.588 60.1752 108.265 60.5222 108.009C60.8691 107.759 61.2738 107.634 61.7412 107.634C61.8087 107.634 61.8809 107.634 61.958 107.638C62.0351 107.638 62.1026 107.653 62.1604 107.672V109.262C62.0448 109.233 61.9484 109.214 61.8665 109.2C61.7846 109.185 61.7027 109.18 61.6256 109.18C61.2305 109.18 60.9125 109.253 60.6715 109.397C60.4306 109.542 60.2427 109.715 60.1126 109.918C59.9777 110.12 59.8861 110.327 59.8379 110.534C59.7898 110.746 59.7657 110.915 59.7657 111.04V114.741H58.0311V107.826L58.0166 107.841Z" fill="#373A36"/>
<path d="M73.4789 107.841V114.134C73.4789 114.755 73.4018 115.319 73.2477 115.825C73.0935 116.331 72.8526 116.755 72.5297 117.107C72.2069 117.458 71.8021 117.728 71.3107 117.921C70.8192 118.114 70.2362 118.21 69.5616 118.21C69.2773 118.21 68.9834 118.186 68.6702 118.138C68.357 118.09 68.0486 118.017 67.7451 117.921C67.4415 117.824 67.1524 117.704 66.8729 117.564C66.5935 117.42 66.3429 117.261 66.1164 117.078L67.1187 115.733C67.4511 116.051 67.8318 116.297 68.2606 116.466C68.6895 116.634 69.1135 116.716 69.5471 116.716C69.9808 116.716 70.3084 116.654 70.5975 116.533C70.8818 116.413 71.1083 116.244 71.2721 116.032C71.4408 115.82 71.5612 115.569 71.6335 115.285C71.7058 115.001 71.7443 114.683 71.7443 114.341V113.835H71.7154C71.4649 114.172 71.1468 114.428 70.7566 114.606C70.3663 114.784 69.9278 114.871 69.4459 114.871C68.9256 114.871 68.4582 114.774 68.0342 114.582C67.6101 114.389 67.2536 114.129 66.9597 113.806C66.6657 113.478 66.4345 113.098 66.2706 112.664C66.1068 112.23 66.0249 111.763 66.0249 111.271C66.0249 110.78 66.1068 110.303 66.2658 109.86C66.4248 109.416 66.6513 109.031 66.9452 108.708C67.2391 108.385 67.5957 108.125 68.0149 107.932C68.4341 107.74 68.9015 107.643 69.417 107.643C69.9326 107.643 70.3711 107.744 70.7951 107.947C71.2191 108.149 71.5564 108.462 71.807 108.882H71.8359V107.85H73.4886L73.4789 107.841ZM69.7832 109.05C69.4652 109.05 69.1809 109.108 68.9352 109.224C68.6895 109.339 68.4823 109.494 68.3136 109.691C68.145 109.889 68.0149 110.12 67.9233 110.39C67.8318 110.66 67.7884 110.949 67.7884 111.252C67.7884 111.532 67.8366 111.802 67.9233 112.062C68.0149 112.317 68.145 112.553 68.3136 112.76C68.4823 112.968 68.6895 113.131 68.9352 113.261C69.1809 113.387 69.4556 113.449 69.7688 113.449C70.082 113.449 70.3711 113.387 70.6265 113.266C70.8818 113.146 71.0987 112.982 71.2769 112.78C71.4552 112.577 71.5901 112.346 71.6865 112.086C71.7829 111.821 71.831 111.546 71.831 111.257C71.831 110.968 71.7829 110.679 71.6865 110.409C71.5901 110.139 71.4552 109.903 71.2769 109.701C71.0987 109.498 70.8866 109.339 70.6361 109.224C70.3855 109.108 70.1013 109.05 69.7881 109.05H69.7832Z" fill="#373A36"/>
<path d="M74.5874 111.262C74.5874 110.717 74.6886 110.221 74.8861 109.773C75.0837 109.325 75.3487 108.944 75.686 108.626C76.0233 108.308 76.4232 108.067 76.8858 107.894C77.3483 107.72 77.8446 107.634 78.365 107.634C78.8854 107.634 79.3721 107.72 79.8346 107.894C80.2972 108.067 80.6971 108.313 81.0344 108.626C81.3717 108.944 81.6367 109.325 81.8343 109.773C82.0318 110.221 82.133 110.717 82.133 111.262C82.133 111.806 82.0366 112.312 81.8343 112.765C81.6367 113.218 81.3717 113.604 81.0344 113.926C80.6971 114.249 80.2972 114.5 79.8346 114.683C79.3721 114.866 78.8806 114.958 78.365 114.958C77.8495 114.958 77.3483 114.866 76.8858 114.683C76.4232 114.5 76.0233 114.249 75.686 113.926C75.3487 113.604 75.0837 113.218 74.8861 112.765C74.6886 112.312 74.5874 111.811 74.5874 111.262ZM76.3509 111.262C76.3509 111.532 76.3943 111.802 76.4762 112.071C76.5581 112.336 76.6786 112.577 76.8424 112.794C77.0062 113.006 77.2134 113.18 77.464 113.314C77.7145 113.449 78.0133 113.517 78.365 113.517C78.7168 113.517 79.0059 113.449 79.2564 113.314C79.507 113.18 79.7142 113.006 79.878 112.794C80.0418 112.582 80.1623 112.341 80.2442 112.071C80.3261 111.802 80.3695 111.532 80.3695 111.262C80.3695 110.992 80.3261 110.727 80.2442 110.462C80.1623 110.197 80.0418 109.961 79.878 109.749C79.7142 109.537 79.507 109.368 79.2564 109.238C79.0059 109.108 78.7071 109.045 78.365 109.045C78.0229 109.045 77.7145 109.108 77.464 109.238C77.2134 109.368 77.0062 109.537 76.8424 109.749C76.6786 109.961 76.5581 110.197 76.4762 110.462C76.3943 110.727 76.3509 110.992 76.3509 111.262Z" fill="#373A36"/>
<path d="M82.2437 107.841H84.1373L85.9586 112.886H85.9875L87.8282 107.841H89.664L86.8982 114.755H85.048L82.2485 107.841H82.2437Z" fill="#373A36"/>
<path d="M96.7758 111.382V111.609C96.7758 111.686 96.7758 111.763 96.7613 111.84H91.49C91.5093 112.091 91.5719 112.322 91.6827 112.529C91.7935 112.736 91.9381 112.91 92.126 113.059C92.3091 113.208 92.5163 113.324 92.7476 113.411C92.9789 113.498 93.2198 113.541 93.4703 113.541C93.9088 113.541 94.275 113.459 94.5738 113.3C94.8725 113.141 95.1182 112.924 95.311 112.645L96.4626 113.565C95.7783 114.49 94.7858 114.953 93.4848 114.953C92.95 114.953 92.4537 114.871 92.0007 114.702C91.5478 114.534 91.1527 114.297 90.8202 113.989C90.4878 113.681 90.2276 113.305 90.0397 112.857C89.8517 112.409 89.7554 111.903 89.7554 111.344C89.7554 110.785 89.8517 110.279 90.0397 109.821C90.2276 109.363 90.4829 108.973 90.8106 108.655C91.1382 108.332 91.5237 108.087 91.9766 107.908C92.4296 107.73 92.9114 107.638 93.427 107.638C93.9136 107.638 94.3569 107.72 94.7665 107.879C95.176 108.038 95.5278 108.274 95.8265 108.588C96.1253 108.901 96.3565 109.291 96.5252 109.754C96.6938 110.221 96.7758 110.766 96.7758 111.387V111.382ZM95.046 110.602C95.046 110.38 95.0122 110.168 94.9496 109.971C94.8869 109.773 94.7858 109.59 94.6508 109.441C94.5159 109.291 94.3473 109.166 94.1401 109.074C93.9329 108.983 93.6872 108.939 93.4077 108.939C92.8921 108.939 92.4488 109.094 92.0875 109.407C91.7261 109.72 91.5237 110.12 91.4852 110.607H95.0411L95.046 110.602Z" fill="#373A36"/>
<path d="M98.0288 107.841H99.696V108.992H99.7249C99.9176 108.588 100.187 108.265 100.534 108.009C100.881 107.759 101.286 107.634 101.753 107.634C101.821 107.634 101.893 107.634 101.97 107.638C102.047 107.638 102.115 107.653 102.173 107.672V109.262C102.057 109.233 101.961 109.214 101.879 109.2C101.797 109.185 101.715 109.18 101.638 109.18C101.243 109.18 100.925 109.253 100.684 109.397C100.443 109.542 100.255 109.715 100.125 109.918C99.9899 110.12 99.8983 110.327 99.8502 110.534C99.802 110.746 99.7779 110.915 99.7779 111.04V114.741H98.0433V107.826L98.0288 107.841Z" fill="#373A36"/>
<path d="M103.333 107.841H104.986V108.954H105.015C105.169 108.607 105.439 108.299 105.82 108.038C106.2 107.778 106.649 107.638 107.169 107.638C107.622 107.638 108.007 107.72 108.335 107.879C108.663 108.038 108.928 108.246 109.13 108.506C109.337 108.766 109.491 109.06 109.588 109.397C109.684 109.734 109.732 110.081 109.732 110.438V114.755H107.998V110.92C107.998 110.717 107.983 110.505 107.954 110.289C107.925 110.067 107.863 109.869 107.766 109.691C107.67 109.513 107.535 109.368 107.366 109.253C107.198 109.137 106.971 109.079 106.697 109.079C106.422 109.079 106.172 109.132 105.969 109.243C105.767 109.354 105.603 109.494 105.473 109.667C105.343 109.84 105.246 110.038 105.174 110.264C105.102 110.491 105.073 110.717 105.073 110.949V114.755H103.338V107.841H103.333Z" fill="#373A36"/>
<path d="M119.557 107.634C120.01 107.634 120.396 107.716 120.718 107.875C121.041 108.034 121.306 108.241 121.513 108.501C121.721 108.761 121.87 109.055 121.966 109.392C122.063 109.73 122.111 110.077 122.111 110.433V114.75H120.381V110.915C120.381 110.713 120.367 110.501 120.333 110.284C120.304 110.062 120.237 109.865 120.145 109.686C120.049 109.508 119.914 109.363 119.75 109.248C119.581 109.132 119.36 109.074 119.075 109.074C118.806 109.074 118.579 109.132 118.386 109.248C118.194 109.363 118.035 109.513 117.909 109.696C117.784 109.879 117.693 110.081 117.635 110.308C117.577 110.534 117.548 110.756 117.548 110.978V114.755H115.818V110.578C115.818 110.149 115.712 109.787 115.505 109.503C115.298 109.219 114.97 109.079 114.527 109.079C114.267 109.079 114.045 109.132 113.852 109.243C113.66 109.354 113.501 109.494 113.38 109.667C113.26 109.84 113.168 110.038 113.105 110.264C113.043 110.491 113.009 110.717 113.009 110.949V114.755H111.274V107.841H112.927V108.954H112.956C113.028 108.78 113.134 108.617 113.264 108.462C113.395 108.308 113.549 108.168 113.727 108.043C113.905 107.918 114.108 107.822 114.339 107.749C114.57 107.677 114.826 107.638 115.105 107.638C115.645 107.638 116.093 107.759 116.449 108C116.806 108.241 117.081 108.559 117.273 108.954C117.509 108.53 117.818 108.207 118.203 107.981C118.584 107.754 119.042 107.638 119.562 107.638L119.557 107.634Z" fill="#373A36"/>
<path d="M130.124 111.382V111.609C130.124 111.686 130.124 111.763 130.109 111.84H124.838C124.857 112.091 124.92 112.322 125.031 112.529C125.142 112.736 125.286 112.91 125.474 113.059C125.657 113.208 125.864 113.324 126.096 113.411C126.327 113.498 126.568 113.541 126.818 113.541C127.257 113.541 127.623 113.459 127.922 113.3C128.221 113.141 128.466 112.924 128.659 112.645L129.811 113.565C129.126 114.49 128.134 114.953 126.833 114.953C126.298 114.953 125.802 114.871 125.349 114.702C124.896 114.534 124.501 114.297 124.168 113.989C123.836 113.681 123.576 113.305 123.388 112.857C123.2 112.409 123.104 111.903 123.104 111.344C123.104 110.785 123.2 110.279 123.388 109.821C123.576 109.363 123.831 108.973 124.159 108.655C124.486 108.332 124.872 108.087 125.325 107.908C125.778 107.73 126.26 107.638 126.775 107.638C127.262 107.638 127.705 107.72 128.115 107.879C128.524 108.038 128.876 108.274 129.175 108.588C129.473 108.901 129.705 109.291 129.873 109.754C130.042 110.221 130.124 110.766 130.124 111.387V111.382ZM128.394 110.602C128.394 110.38 128.36 110.168 128.298 109.971C128.235 109.773 128.134 109.59 127.999 109.441C127.864 109.291 127.695 109.166 127.488 109.074C127.281 108.983 127.035 108.939 126.756 108.939C126.24 108.939 125.797 109.094 125.436 109.407C125.074 109.72 124.872 110.12 124.833 110.607H128.389L128.394 110.602Z" fill="#373A36"/>
<path d="M131.179 107.841H132.832V108.954H132.861C133.015 108.607 133.285 108.299 133.665 108.038C134.046 107.778 134.494 107.638 135.015 107.638C135.468 107.638 135.853 107.72 136.181 107.879C136.508 108.038 136.773 108.246 136.976 108.506C137.183 108.766 137.337 109.06 137.433 109.397C137.53 109.734 137.578 110.081 137.578 110.438V114.755H135.843V110.92C135.843 110.717 135.829 110.505 135.8 110.289C135.771 110.067 135.708 109.869 135.612 109.691C135.516 109.513 135.381 109.368 135.212 109.253C135.044 109.137 134.817 109.079 134.542 109.079C134.268 109.079 134.017 109.132 133.815 109.243C133.612 109.354 133.449 109.494 133.319 109.667C133.188 109.84 133.092 110.038 133.02 110.264C132.948 110.491 132.919 110.717 132.919 110.949V114.755H131.184V107.841H131.179Z" fill="#373A36"/>
<path d="M138.339 109.224V107.836H139.554V105.832H141.259V107.836H142.994V109.224H141.259V112.433C141.259 112.741 141.317 112.996 141.428 113.199C141.539 113.401 141.784 113.502 142.17 113.502C142.281 113.502 142.406 113.493 142.546 113.469C142.686 113.445 142.801 113.406 142.907 113.358L142.97 114.717C142.816 114.774 142.633 114.818 142.421 114.852C142.209 114.885 142.006 114.9 141.813 114.9C141.346 114.9 140.97 114.837 140.681 114.707C140.392 114.577 140.161 114.403 139.997 114.177C139.828 113.951 139.713 113.695 139.65 113.401C139.587 113.107 139.554 112.794 139.554 112.457V109.233H138.339V109.224Z" fill="#373A36"/>
<path d="M151.792 113.873H151.749C151.575 114.182 151.296 114.437 150.91 114.635C150.525 114.832 150.087 114.929 149.59 114.929C149.311 114.929 149.022 114.89 148.718 114.818C148.415 114.746 148.135 114.625 147.88 114.456C147.624 114.288 147.412 114.066 147.244 113.791C147.075 113.517 146.988 113.18 146.988 112.775C146.988 112.259 147.133 111.85 147.427 111.541C147.721 111.233 148.097 110.997 148.559 110.833C149.022 110.669 149.532 110.563 150.096 110.51C150.66 110.457 151.214 110.433 151.754 110.433V110.255C151.754 109.826 151.595 109.503 151.281 109.296C150.968 109.089 150.592 108.988 150.154 108.988C149.793 108.988 149.441 109.065 149.104 109.219C148.766 109.373 148.487 109.556 148.265 109.778L147.369 108.732C147.764 108.366 148.217 108.091 148.737 107.908C149.253 107.725 149.773 107.634 150.308 107.634C150.925 107.634 151.431 107.72 151.831 107.894C152.231 108.067 152.544 108.294 152.775 108.573C153.006 108.853 153.165 109.166 153.257 109.508C153.349 109.85 153.397 110.197 153.397 110.544V114.75H151.778V113.873H151.792ZM151.763 111.594H151.368C151.089 111.594 150.8 111.609 150.491 111.633C150.183 111.657 149.899 111.715 149.638 111.797C149.378 111.879 149.161 111.994 148.988 112.144C148.814 112.293 148.733 112.495 148.733 112.751C148.733 112.915 148.766 113.054 148.839 113.16C148.911 113.266 149.002 113.358 149.118 113.425C149.234 113.493 149.364 113.541 149.508 113.57C149.653 113.599 149.802 113.613 149.947 113.613C150.544 113.613 150.997 113.454 151.306 113.136C151.614 112.818 151.768 112.389 151.768 111.84V111.594H151.763Z" fill="#373A36"/>
<path d="M154.346 109.224V107.836H155.56V105.832H157.266V107.836H159V109.224H157.266V112.433C157.266 112.741 157.323 112.996 157.434 113.199C157.545 113.401 157.791 113.502 158.176 113.502C158.287 113.502 158.412 113.493 158.552 113.469C158.692 113.445 158.808 113.406 158.914 113.358L158.976 114.717C158.822 114.774 158.639 114.818 158.427 114.852C158.215 114.885 158.012 114.9 157.82 114.9C157.352 114.9 156.977 114.837 156.687 114.707C156.398 114.577 156.167 114.403 156.003 114.177C155.835 113.951 155.719 113.695 155.656 113.401C155.594 113.107 155.56 112.794 155.56 112.457V109.233H154.346V109.224Z" fill="#373A36"/>
<path d="M162.855 107.841H164.734L166.18 112.794H166.209L167.697 107.841H169.548L171.051 112.794H171.085L172.554 107.841H174.361L171.962 114.755H170.203L168.623 109.918H168.594L167.033 114.755H165.269L162.855 107.841Z" fill="#373A36"/>
<path d="M174.53 111.262C174.53 110.717 174.631 110.221 174.829 109.773C175.027 109.325 175.292 108.944 175.629 108.626C175.966 108.308 176.366 108.067 176.829 107.894C177.291 107.72 177.787 107.634 178.308 107.634C178.828 107.634 179.315 107.72 179.777 107.894C180.24 108.067 180.64 108.313 180.977 108.626C181.315 108.944 181.58 109.325 181.777 109.773C181.975 110.221 182.076 110.717 182.076 111.262C182.076 111.806 181.979 112.312 181.777 112.765C181.58 113.218 181.315 113.604 180.977 113.926C180.64 114.249 180.24 114.5 179.777 114.683C179.315 114.866 178.823 114.958 178.308 114.958C177.792 114.958 177.291 114.866 176.829 114.683C176.366 114.5 175.966 114.249 175.629 113.926C175.292 113.604 175.027 113.218 174.829 112.765C174.631 112.312 174.53 111.811 174.53 111.262ZM176.294 111.262C176.294 111.532 176.337 111.802 176.419 112.071C176.501 112.336 176.621 112.577 176.785 112.794C176.949 113.006 177.156 113.18 177.407 113.314C177.657 113.449 177.956 113.517 178.308 113.517C178.66 113.517 178.949 113.449 179.199 113.314C179.45 113.18 179.657 113.006 179.821 112.794C179.985 112.582 180.105 112.341 180.187 112.071C180.269 111.802 180.312 111.532 180.312 111.262C180.312 110.992 180.269 110.727 180.187 110.462C180.105 110.197 179.985 109.961 179.821 109.749C179.657 109.537 179.45 109.368 179.199 109.238C178.949 109.108 178.65 109.045 178.308 109.045C177.966 109.045 177.657 109.108 177.407 109.238C177.156 109.368 176.949 109.537 176.785 109.749C176.621 109.961 176.501 110.197 176.419 110.462C176.337 110.727 176.294 110.992 176.294 111.262Z" fill="#373A36"/>
<path d="M183.078 107.841H184.745V108.992H184.774C184.967 108.588 185.237 108.265 185.584 108.009C185.931 107.759 186.335 107.634 186.803 107.634C186.87 107.634 186.942 107.634 187.02 107.638C187.097 107.638 187.164 107.653 187.222 107.672V109.262C187.106 109.233 187.01 109.214 186.928 109.2C186.846 109.185 186.764 109.18 186.687 109.18C186.292 109.18 185.974 109.253 185.733 109.397C185.492 109.542 185.304 109.715 185.174 109.918C185.039 110.12 184.948 110.327 184.899 110.534C184.851 110.746 184.827 110.915 184.827 111.04V114.741H183.093V107.826L183.078 107.841Z" fill="#373A36"/>
<path d="M188.253 104.463H189.983V110.751H190.026L192.657 107.841H194.888L191.881 110.963L195.071 114.755H192.777L190.026 111.209H189.983V114.755H188.253V104.468V104.463Z" fill="#373A36"/>
<path d="M110.667 18.0599L114.777 5.41169C114.849 5.19005 114.695 4.95395 114.464 4.93467C113.881 4.88649 113.298 4.8624 112.705 4.8624C103.574 4.8624 95.6817 10.1289 91.8752 17.7853C91.7547 18.0262 91.9378 18.3105 92.2029 18.3105H110.325C110.484 18.3105 110.619 18.2093 110.667 18.0599Z" fill="#FF0177"/>
<path d="M123.344 18.3105H136.609C136.845 18.3105 137.019 18.0889 136.966 17.8624C134.793 8.69787 127.204 1.63412 117.765 0.241609C117.5 0.203062 117.283 0.463255 117.365 0.718629L122.997 18.0648C123.046 18.2142 123.185 18.3154 123.34 18.3154L123.344 18.3105Z" fill="#740799"/>
<path d="M127.025 30.4432L131.049 42.7445C131.121 42.9661 131.381 43.0673 131.579 42.9469C138.406 38.8946 142.984 31.4502 142.984 22.9361C142.984 21.7267 142.887 20.5462 142.704 19.3898C142.661 19.1248 142.348 18.9947 142.131 19.1537L127.151 30.0384C127.025 30.13 126.972 30.2938 127.021 30.4432H127.025Z" fill="#940787"/>
<path d="M106.509 30.0384L95.8215 22.2712C95.6288 22.1314 95.359 22.2085 95.2674 22.4254C94.1833 25.1092 93.5762 28.0436 93.5762 31.1177C93.5762 37.5792 96.2166 43.4191 100.466 47.6303C100.659 47.8182 100.987 47.7363 101.069 47.4809L106.644 30.4431C106.692 30.2938 106.644 30.13 106.514 30.0384H106.509Z" fill="#E0007A"/>
<path d="M116.618 37.6948L106.012 45.3994C105.82 45.5391 105.81 45.8234 105.988 45.9776C110.026 49.3649 115.23 51.4079 120.911 51.4079C124.727 51.4079 128.317 50.478 131.492 48.8493C131.733 48.7241 131.752 48.3868 131.535 48.2278L117.042 37.6948C116.916 37.6032 116.743 37.6032 116.618 37.6948Z" fill="#C40086"/>
<path d="M18.0627 98.2282H13.9526C13.6635 98.2282 13.4323 97.9969 13.4323 97.7078V65.7571H0.96228C0.673177 65.7571 0.441895 65.5258 0.441895 65.2367V61.7482C0.441895 61.4591 0.673177 61.2278 0.96228 61.2278H31.0483C31.3374 61.2278 31.5686 61.4591 31.5686 61.7482V65.2367C31.5686 65.5258 31.3374 65.7571 31.0483 65.7571H18.5783V97.7078C18.5783 97.9969 18.347 98.2282 18.0579 98.2282H18.0627Z" fill="#373A36"/>
<path d="M26.9384 73.5629H30.528C30.8172 73.5629 31.0484 73.7942 31.0484 74.0833V78.2463H31.2026C31.8965 76.7912 32.9131 75.6203 34.2478 74.7337C35.5825 73.8472 37.0859 73.4039 38.7482 73.4039C39.3216 73.4039 39.8275 73.4424 40.266 73.5243C40.5069 73.5677 40.6756 73.7893 40.6756 74.0351V77.7019C40.6756 77.9476 40.4491 78.1355 40.2082 78.0825C39.6396 77.9621 39.0132 77.8802 38.2278 77.8802C37.0473 77.8802 36.0258 78.097 35.1585 78.5306C34.2912 78.9643 33.5733 79.5425 32.9999 80.2749C32.4265 81.0025 32.0025 81.8457 31.723 82.7997C31.4435 83.7538 31.3086 84.7512 31.3086 85.7919V97.7078C31.3086 97.9969 31.0773 98.2282 30.7882 98.2282H26.9384C26.6493 98.2282 26.418 97.9969 26.418 97.7078V74.0833C26.418 73.7942 26.6493 73.5629 26.9384 73.5629Z" fill="#373A36"/>
<path d="M62.1751 98.2282C61.886 98.2282 61.6547 97.9969 61.6547 97.7078V94.1711H61.5487C60.9223 95.4914 59.8768 96.6093 58.4023 97.5296C56.9279 98.4499 55.2897 98.9076 53.4828 98.9076C51.8879 98.9076 50.505 98.6474 49.3438 98.127C48.1825 97.6067 47.2285 96.8887 46.4817 95.9684C45.7348 95.0481 45.1807 93.9832 44.8145 92.769C44.4483 91.5548 44.27 90.2538 44.27 88.8661V74.0881C44.27 73.799 44.5013 73.5677 44.7904 73.5677H48.6403C48.9294 73.5677 49.1607 73.799 49.1607 74.0881V87.2038C49.1607 88.2108 49.2378 89.1745 49.3968 90.09C49.551 91.0103 49.8401 91.815 50.2545 92.5088C50.6688 93.2027 51.2422 93.7568 51.9698 94.176C52.6974 94.5903 53.637 94.8024 54.7789 94.8024C56.7545 94.8024 58.3542 94.0651 59.5684 92.5907C60.7826 91.1163 61.3897 89.1456 61.3897 86.6834V74.0881C61.3897 73.799 61.621 73.5677 61.9101 73.5677H65.76C66.0491 73.5677 66.2804 73.799 66.2804 74.0881V97.7127C66.2804 98.0018 66.0491 98.233 65.76 98.233H62.1703L62.1751 98.2282Z" fill="#373A36"/>
<path d="M131.16 92.1908C131.41 92.3594 131.468 92.7112 131.28 92.9473C129.873 94.7252 128.095 96.1804 125.946 97.3175C123.624 98.5462 120.829 99.163 117.567 99.163C114.758 99.163 112.166 98.6859 109.785 97.7319C107.41 96.7779 105.362 95.4432 103.647 93.723C101.931 92.0029 100.587 89.9599 99.6138 87.5844C98.6405 85.2089 98.1587 82.5974 98.1587 79.7545C98.1587 76.9117 98.655 74.2471 99.6428 71.8717C100.631 69.4962 102.004 67.4677 103.753 65.7812C105.507 64.0996 107.579 62.789 109.973 61.8542C112.368 60.9195 114.97 60.4473 117.779 60.4473C119.027 60.4473 120.294 60.5677 121.576 60.8135C122.858 61.0544 124.091 61.4206 125.272 61.9072C126.452 62.3939 127.527 62.9914 128.5 63.7045C129.324 64.3068 130.052 64.9958 130.673 65.7619C130.856 65.9884 130.808 66.3209 130.577 66.4992L127.344 68.9854C127.117 69.1589 126.804 69.1107 126.621 68.8939C125.744 67.8242 124.573 66.9328 123.108 66.2052C121.46 65.3909 119.682 64.9814 117.774 64.9814C115.621 64.9814 113.688 65.3717 111.973 66.1522C110.258 66.9328 108.788 67.9977 107.574 69.3516C106.36 70.7056 105.425 72.2764 104.765 74.0592C104.105 75.8468 103.777 77.7453 103.777 79.7593C103.777 81.7734 104.1 83.7827 104.741 85.5896C105.381 87.3917 106.302 88.9625 107.497 90.2971C108.692 91.6318 110.152 92.6822 111.867 93.4436C113.582 94.2049 115.5 94.5903 117.615 94.5903C119.731 94.5903 121.586 94.1759 123.287 93.3424C124.838 92.5811 126.144 91.5017 127.209 90.1044C127.377 89.8828 127.686 89.8249 127.917 89.9791L131.155 92.1908H131.16Z" fill="#373A36"/>
<path d="M159.28 85.8402C159.28 87.7483 158.943 89.5021 158.263 91.097C157.589 92.6919 156.649 94.07 155.454 95.236C154.259 96.3972 152.843 97.2983 151.214 97.9391C149.581 98.58 147.832 98.9028 145.957 98.9028C144.083 98.9028 142.334 98.58 140.7 97.9391C139.067 97.2983 137.665 96.3972 136.484 95.236C135.304 94.0748 134.379 92.6967 133.699 91.097C133.025 89.5021 132.683 87.7483 132.683 85.8402C132.683 83.9321 133.02 82.1878 133.699 80.6122C134.374 79.0318 135.304 77.673 136.484 76.5262C137.665 75.3795 139.067 74.4881 140.7 73.8472C142.329 73.2064 144.083 72.8835 145.957 72.8835C147.832 72.8835 149.581 73.2064 151.214 73.8472C152.843 74.4881 154.259 75.3843 155.454 76.5262C156.649 77.673 157.589 79.0318 158.263 80.6122C158.938 82.1927 159.28 83.9369 159.28 85.8402ZM154.182 85.8691C154.182 84.6934 153.999 83.5707 153.633 82.4962C153.267 81.4265 152.737 80.4821 152.043 79.6678C151.349 78.8535 150.487 78.2079 149.46 77.7212C148.434 77.2345 147.258 76.9936 145.938 76.9936C144.618 76.9936 143.442 77.2345 142.416 77.7212C141.389 78.203 140.527 78.8535 139.833 79.6678C139.134 80.4821 138.604 81.4217 138.243 82.4962C137.877 83.5707 137.694 84.6934 137.694 85.8691C137.694 87.0448 137.877 88.1723 138.243 89.242C138.609 90.3165 139.139 91.2657 139.833 92.0944C140.527 92.9232 141.389 93.5833 142.416 94.0651C143.442 94.5518 144.618 94.7927 145.938 94.7927C147.258 94.7927 148.434 94.5518 149.46 94.0651C150.487 93.5833 151.349 92.9232 152.043 92.0944C152.737 91.2657 153.267 90.3116 153.633 89.242C153.999 88.1723 154.182 87.0448 154.182 85.8691Z" fill="#373A36"/>
<path d="M170.242 74.2616C171.61 73.3413 173.234 72.8835 175.108 72.8835C176.775 72.8835 178.274 73.2642 179.608 74.0303C180.943 74.7916 181.994 76.0589 182.755 77.832C183.588 76.2371 184.75 75.0133 186.243 74.1652C187.737 73.3172 189.366 72.8884 191.134 72.8884C192.729 72.8884 194.102 73.1582 195.244 73.693C196.391 74.2327 197.345 74.9506 198.106 75.8517C198.868 76.7527 199.431 77.8127 199.797 79.027C200.164 80.2412 200.342 81.5422 200.342 82.9299V97.7078C200.342 97.9969 200.111 98.2282 199.822 98.2282H195.972C195.683 98.2282 195.451 97.9969 195.451 97.7078V84.544C195.451 83.537 195.365 82.5829 195.191 81.6819C195.018 80.7809 194.724 79.981 194.305 79.2872C193.89 78.5933 193.331 78.0392 192.637 77.62C191.944 77.2056 191.057 76.9936 189.982 76.9936C188.908 76.9936 187.92 77.2297 187.12 77.6971C186.32 78.1645 185.67 78.7716 185.169 79.5185C184.668 80.2653 184.302 81.1037 184.075 82.0433C183.849 82.9781 183.738 83.9321 183.738 84.9054V97.7078C183.738 97.9969 183.507 98.2282 183.217 98.2282H179.368C179.078 98.2282 178.847 97.9969 178.847 97.7078V83.5514C178.847 82.5781 178.76 81.6964 178.587 80.8965C178.414 80.0967 178.12 79.4125 177.7 78.8391C177.286 78.2657 176.746 77.8176 176.086 77.4851C175.426 77.1574 174.612 76.9888 173.638 76.9888C171.836 76.9888 170.333 77.726 169.138 79.2004C167.943 80.6749 167.341 82.6456 167.341 85.1078V97.703C167.341 97.9921 167.11 98.2234 166.82 98.2234H162.971C162.681 98.2234 162.45 97.9921 162.45 97.703V74.0785C162.45 73.7894 162.681 73.5581 162.971 73.5581H166.56C166.849 73.5581 167.081 73.7894 167.081 74.0785V77.6152H167.235C167.861 76.295 168.854 75.1771 170.227 74.2568L170.242 74.2616Z" fill="#373A36"/>
<path d="M208.654 110.558H204.804C204.515 110.558 204.284 110.327 204.284 110.038V74.0833C204.284 73.7942 204.515 73.5629 204.804 73.5629H208.553C208.842 73.5629 209.073 73.7942 209.073 74.0833V77.4128H209.227C210.022 76.0926 211.193 75.0133 212.73 74.1604C214.272 73.3124 216.06 72.8835 218.103 72.8835C219.939 72.8835 221.606 73.216 223.114 73.8713C224.617 74.5314 225.918 75.4517 227.007 76.6274C228.096 77.8079 228.935 79.186 229.522 80.7664C230.11 82.3468 230.404 84.0381 230.404 85.8402C230.404 87.6423 230.11 89.3431 229.522 90.938C228.935 92.5329 228.101 93.9206 227.031 95.1011C225.957 96.2816 224.661 97.2067 223.138 97.8861C221.615 98.5607 219.9 98.898 217.997 98.898C216.233 98.898 214.571 98.5173 213.015 97.7512C211.458 96.9899 210.23 95.9154 209.329 94.5229H209.174V110.028C209.174 110.318 208.943 110.549 208.654 110.549V110.558ZM225.412 85.8402C225.412 84.6934 225.239 83.5852 224.892 82.5107C224.545 81.4362 224.025 80.4821 223.331 79.6486C222.637 78.815 221.779 78.1549 220.753 77.673C219.731 77.1864 218.541 76.9454 217.187 76.9454C215.939 76.9454 214.802 77.1912 213.781 77.673C212.759 78.1597 211.882 78.8198 211.155 79.6486C210.427 80.4821 209.863 81.4362 209.463 82.5107C209.064 83.5852 208.866 84.7127 208.866 85.8932C208.866 87.0737 209.064 88.2012 209.463 89.2757C209.863 90.3502 210.427 91.2994 211.155 92.1137C211.882 92.928 212.759 93.5785 213.781 94.0652C214.802 94.5518 215.939 94.7927 217.187 94.7927C218.541 94.7927 219.727 94.5422 220.753 94.0362C221.774 93.5351 222.632 92.8654 223.331 92.0318C224.025 91.1982 224.545 90.2442 224.892 89.1697C225.239 88.0952 225.412 86.9821 225.412 85.8402Z" fill="#373A36"/>
<path d="M94.3909 85.6859C94.3909 85.9461 94.4005 86.4183 94.3813 86.8472C94.3668 87.1266 94.1403 87.3483 93.8609 87.3483H74.7222C74.756 88.3842 74.9921 89.3575 75.4257 90.2682C75.8594 91.1789 76.4424 91.9739 77.17 92.6437C77.8976 93.3134 78.7408 93.8386 79.6948 94.2193C80.6489 94.5999 81.6655 94.7878 82.74 94.7878C84.4072 94.7878 85.8431 94.4216 87.0573 93.6941C88.0933 93.0725 88.9413 92.3353 89.6014 91.4824C89.7845 91.2463 90.1122 91.1933 90.3435 91.3813L92.9502 93.4724C93.1718 93.6507 93.2152 93.9832 93.0321 94.2096C91.7841 95.7515 90.3386 96.9031 88.6956 97.6596C86.9079 98.4835 84.9228 98.8979 82.7352 98.8979C80.8609 98.8979 79.1262 98.5847 77.5314 97.9632C75.9365 97.3416 74.5632 96.4646 73.4213 95.3371C72.2745 94.2096 71.3735 92.846 70.7134 91.2512C70.0532 89.6563 69.7256 87.8879 69.7256 85.9413C69.7256 83.9947 70.0484 82.2745 70.6893 80.6604C71.3349 79.0462 72.2263 77.6681 73.3731 76.5214C74.5199 75.3746 75.8787 74.4832 77.4398 73.8423C79.0058 73.2015 80.6874 72.8787 82.4991 72.8787C84.3108 72.8787 85.9491 73.1726 87.4283 73.7652C88.9076 74.3531 90.1555 75.2059 91.1818 76.3142C92.2082 77.4224 92.9984 78.7667 93.5525 80.3472C94.1066 81.9276 94.3861 83.7056 94.3861 85.6811L94.3909 85.6859ZM89.399 83.7104C89.3653 82.7371 89.1967 81.8264 88.9028 80.9784C88.6088 80.1303 88.1752 79.3931 87.6018 78.7667C87.0284 78.1403 86.3201 77.6489 85.4672 77.2827C84.6144 76.9165 83.6218 76.7382 82.475 76.7382C81.4343 76.7382 80.4513 76.9213 79.5358 77.2827C78.6155 77.6489 77.8205 78.1403 77.1411 78.7667C76.4665 79.3883 75.9076 80.1303 75.4739 80.9784C75.0403 81.8312 74.7897 82.7371 74.7174 83.7104H89.3942H89.399Z" fill="#373A36"/>
</g>
<defs>
<clipPath id="clip0_687_272">
<rect width="230" height="119.144" fill="white" transform="translate(0.5 0.053894)"/>
</clipPath>
</defs>
</svg>
